<svg width="30" height="30" viewBox="0 0 60 60" fill="none" xmlns="http://www.w3.org/2000/svg">
<path d="M4.79343 31.5117C4.57063 31.0399 4.45508 30.5247 4.45508 30.0029C4.45508 29.4812 4.57063 28.9659 4.79343 28.4941C10.3481 16.7871 18.7387 10.8984 30.0005 10.8984C18.7387 10.8984 10.3481 16.7871 4.79343 28.4941C4.57063 28.9659 4.45508 29.4812 4.45508 30.0029C4.45508 30.5247 4.57063 31.0399 4.79343 31.5117C10.3481 43.2129 18.7446 49.1016 30.0005 49.1016C18.7446 49.1016 10.3481 43.2129 4.79343 31.5117V31.5117Z" fill="#666666" fill-opacity="0.15"/>
<path d="M30 15.1172C20.5488 15.1172 13.6289 19.9102 8.74805 30C13.6289 40.0898 20.5488 44.8828 30 44.8828C39.457 44.8828 46.377 40.0898 51.252 30C46.3711 19.9102 39.4512 15.1172 30 15.1172ZM29.7656 40.3125C24.0703 40.3125 19.4531 35.6953 19.4531 30C19.4531 24.3047 24.0703 19.6875 29.7656 19.6875C35.4609 19.6875 40.0781 24.3047 40.0781 30C40.0781 35.6953 35.4609 40.3125 29.7656 40.3125Z" fill="#666666" fill-opacity="0.15"/>
<path d="M55.2075 28.4883C49.6528 16.7871 41.2563 10.8984 30.0005 10.8984C18.7387 10.8984 10.3481 16.7871 4.79343 28.4941C4.57063 28.9659 4.45508 29.4812 4.45508 30.0029C4.45508 30.5247 4.57063 31.0399 4.79343 31.5117C10.3481 43.2129 18.7446 49.1016 30.0005 49.1016C41.2622 49.1016 49.6528 43.2129 55.2075 31.5059C55.6587 30.5566 55.6587 29.4551 55.2075 28.4883V28.4883ZM30.0005 44.8828C20.5493 44.8828 13.6294 40.0898 8.74851 30C13.6294 19.9102 20.5493 15.1172 30.0005 15.1172C39.4516 15.1172 46.3716 19.9102 51.2524 30C46.3774 40.0898 39.4575 44.8828 30.0005 44.8828Z" fill="#666666"/>
<path d="M29.7656 19.6875C24.0703 19.6875 19.4531 24.3047 19.4531 30C19.4531 35.6953 24.0703 40.3125 29.7656 40.3125C35.4609 40.3125 40.0781 35.6953 40.0781 30C40.0781 24.3047 35.4609 19.6875 29.7656 19.6875ZM29.7656 36.5625C26.1387 36.5625 23.2031 33.627 23.2031 30C23.2031 26.373 26.1387 23.4375 29.7656 23.4375C33.3926 23.4375 36.3281 26.373 36.3281 30C36.3281 33.627 33.3926 36.5625 29.7656 36.5625Z" fill="#666666"/>
</svg>
